<svg width="16" height="16" viewBox="0 0 16 16" fill="none" xmlns="http://www.w3.org/2000/svg">
<path d="M8.03664 15.3709C12.1393 15.3709 15.4652 12.045 15.4652 7.94232C15.4652 3.83964 12.1393 0.513763 8.03664 0.513763C3.93396 0.513763 0.60808 3.83964 0.60808 7.94232C0.60808 12.045 3.93396 15.3709 8.03664 15.3709Z" stroke="black"/>
<path d="M8.36373 10.1798H7.20123C7.20541 9.77981 7.24083 9.45275 7.30749 9.19859C7.37832 8.94024 7.49291 8.70483 7.65123 8.49232C7.80957 8.27981 8.02 8.03816 8.28248 7.76733C8.47416 7.57149 8.64915 7.38816 8.80749 7.21733C8.97 7.04232 9.10123 6.85483 9.20123 6.65483C9.30123 6.45067 9.35123 6.20691 9.35123 5.92357C9.35123 5.63608 9.29915 5.38816 9.19499 5.17981C9.09499 4.97149 8.94499 4.81107 8.74499 4.69859C8.54915 4.58608 8.30541 4.52981 8.01373 4.52981C7.77208 4.52981 7.54291 4.57357 7.32624 4.66107C7.10957 4.74859 6.93456 4.884 6.80123 5.06733C6.66789 5.24648 6.59915 5.48192 6.59499 5.77357H5.43875C5.44707 5.30275 5.56373 4.89859 5.78875 4.56107C6.01789 4.22357 6.32624 3.96525 6.71373 3.78608C7.10123 3.60691 7.53456 3.51733 8.01373 3.51733C8.54291 3.51733 8.99291 3.61315 9.36373 3.80483C9.73875 3.99648 10.0242 4.27149 10.22 4.62981C10.4158 4.984 10.5137 5.40483 10.5137 5.89232C10.5137 6.26733 10.4367 6.61315 10.2825 6.92981C10.1325 7.24232 9.93875 7.53608 9.70123 7.81107C9.46373 8.08608 9.21165 8.34859 8.94499 8.59859C8.71581 8.81107 8.56165 9.05067 8.48248 9.31733C8.40333 9.584 8.36373 9.87149 8.36373 10.1798ZM7.15123 12.1611C7.15123 11.9736 7.20957 11.8153 7.32624 11.6861C7.44291 11.5569 7.61165 11.4923 7.83248 11.4923C8.05749 11.4923 8.22832 11.5569 8.34499 11.6861C8.46165 11.8153 8.52 11.9736 8.52 12.1611C8.52 12.3402 8.46165 12.4944 8.34499 12.6236C8.22832 12.7527 8.05749 12.8173 7.83248 12.8173C7.61165 12.8173 7.44291 12.7527 7.32624 12.6236C7.20957 12.4944 7.15123 12.3402 7.15123 12.1611Z" fill="black"/>
</svg>
